<svg xmlns="http://www.w3.org/2000/svg" width="24" height="24" viewBox="0 0 24 24"><defs><style>.a{fill:#fff;}</style></defs><path class="a" d="M22.539,1.928H6.6A4.043,4.043,0,0,0,2.571,5.959V21.9A4.043,4.043,0,0,0,6.6,25.928H22.539A4.043,4.043,0,0,0,26.571,21.9V5.959a4.043,4.043,0,0,0-4.031-4.031Zm-10.969,19.5h-3v-10.5h3v10.5Zm-1.5-12a1.5,1.5,0,1,1,1.5-1.5A1.5,1.5,0,0,1,10.071,9.428Zm12,12h-3v-6a1.5,1.5,0,0,0-3,0v6h-3v-10.5h3v1.863c.619-.85,1.565-1.863,2.625-1.863a3.577,3.577,0,0,1,3.375,3.75v6.75Z" transform="translate(-2.571 -1.928)"/></svg>